HIERARCHY
ROOT Hips
{
	OFFSET 53.875599 15.360985 95.610001
	CHANNELS 6 Xposition Yposition Zposition Xrotation Yrotation Zrotation
	JOINT spine
	{
		OFFSET 0.000000 -0.467661 8.132492
		CHANNELS 3 Xrotation Yrotation Zrotation
		JOINT spine1
		{
			OFFSET 0.000000 -0.000001 10.349800
			CHANNELS 3 Xrotation Yrotation Zrotation
			JOINT spine2
			{
				OFFSET 0.000000 -0.000002 9.916992
				CHANNELS 3 Xrotation Yrotation Zrotation
				JOINT Neck
				{
					OFFSET 0.000000 -1.213904 25.461006
					CHANNELS 3 Xrotation Yrotation Zrotation
					JOINT Head
					{
						OFFSET 0.000000 -0.000001 7.692444
						CHANNELS 3 Xrotation Yrotation Zrotation
						End Site
						{
							OFFSET 0.000000 6.140628 18.619995
						}
					}
				}
				JOINT RightShoulder
				{
					OFFSET -4.175751 0.581443 10.709602
					CHANNELS 3 Xrotation Yrotation Zrotation
					JOINT RightArm
					{
						OFFSET 0.000000 -0.000002 14.046600
						CHANNELS 3 Xrotation Yrotation Zrotation
						JOINT RightArmRoll
						{
							OFFSET 0.000000 -0.000002 7.090973
							CHANNELS 3 Xrotation Yrotation Zrotation
							JOINT RightForeArm
							{
								OFFSET 0.000000 -0.000003 20.653503
								CHANNELS 3 Xrotation Yrotation Zrotation
								JOINT RightForeArmRoll
								{
									OFFSET 0.000000 -0.000002 7.957184
									CHANNELS 3 Xrotation Yrotation Zrotation
									JOINT RightHand
									{
										OFFSET 0.000000 -0.000002 15.968307
										CHANNELS 3 Xrotation Yrotation Zrotation
										End Site
										{
											OFFSET 0.000000 0.000000 0.100006
										}
									}
								}
							}
						}
					}
				}
				JOINT LeftShoulder
				{
					OFFSET 4.175751 0.581443 10.709602
					CHANNELS 3 Xrotation Yrotation Zrotation
					JOINT LeftArm
					{
						OFFSET 0.000000 -0.000002 14.046600
						CHANNELS 3 Xrotation Yrotation Zrotation
						JOINT LeftArmRoll
						{
							OFFSET 0.000000 -0.000002 7.090988
							CHANNELS 3 Xrotation Yrotation Zrotation
							JOINT LeftForeArm
							{
								OFFSET 0.000000 -0.000003 20.653503
								CHANNELS 3 Xrotation Yrotation Zrotation
								JOINT LeftForeArmRoll
								{
									OFFSET 0.000000 -0.000002 7.957184
									CHANNELS 3 Xrotation Yrotation Zrotation
									JOINT LeftHand
									{
										OFFSET 0.000000 -0.000002 15.968292
										CHANNELS 3 Xrotation Yrotation Zrotation
										End Site
										{
											OFFSET 0.000000 0.000000 0.100006
										}
									}
								}
							}
						}
					}
				}
			}
		}
	}
	JOINT RightUpLeg
	{
		OFFSET -7.208340 1.108841 -1.321823
		CHANNELS 3 Xrotation Yrotation Zrotation
		JOINT RightUpLegRoll
		{
			OFFSET 0.000000 -0.000004 18.723801
			CHANNELS 3 Xrotation Yrotation Zrotation
			JOINT RightLeg
			{
				OFFSET 0.000000 0.000004 -23.186600
				CHANNELS 3 Xrotation Yrotation Zrotation
				JOINT RightLegRoll
				{
					OFFSET 0.000000 -0.000004 23.262398
					CHANNELS 3 Xrotation Yrotation Zrotation
					JOINT RightFoot
					{
						OFFSET 0.000000 -0.000002 19.362099
						CHANNELS 3 Xrotation Yrotation Zrotation
						JOINT RightToeBase
						{
							OFFSET 0.000000 -0.000004 16.185699
							CHANNELS 3 Xrotation Yrotation Zrotation
							End Site
							{
								OFFSET 0.006859 0.903522 7.838623
							}
						}
					}
				}
			}
		}
	}
	JOINT LeftUpLeg
	{
		OFFSET 7.208340 1.108841 -1.321823
		CHANNELS 3 Xrotation Yrotation Zrotation
		JOINT LeftUpLegRoll
		{
			OFFSET 0.000000 -0.000004 18.723900
			CHANNELS 3 Xrotation Yrotation Zrotation
			JOINT LeftLeg
			{
				OFFSET 0.000000 -0.000004 23.186501
				CHANNELS 3 Xrotation Yrotation Zrotation
				JOINT LeftLegRoll
				{
					OFFSET 0.000000 -0.000004 23.477509
					CHANNELS 3 Xrotation Yrotation Zrotation
					JOINT LeftFoot
					{
						OFFSET 0.000000 -0.000002 19.147003
						CHANNELS 3 Xrotation Yrotation Zrotation
						JOINT LeftToeBase
						{
							OFFSET 0.000000 -0.000004 16.185699
							CHANNELS 3 Xrotation Yrotation Zrotation
							End Site
							{
								OFFSET -0.030746 0.903522 7.838623
							}
						}
					}
				}
			}
		}
	}
}
MOTION
Frames: 11
Frame Time: 0.041667
50.406097 -2.712139 95.995987 -4.101588 1.034075 0.864754 -0.745042 -0.558950 -0.015156 2.512649 -1.118044 -0.031735 4.157853 -1.118359 -0.018337 11.091920 1.695465 -4.020656 0.579967 -0.082683 -4.149533 -19.202732 -58.819151 -22.699722 -46.669279 -119.752382 -27.045835 0.000001 0.000000 -0.000002 0.226079 -8.675746 -0.578327 0.000001 0.000005 -2.999998 -5.000222 -7.998912 0.000136 -12.480221 60.413447 14.801238 -49.956721 118.945805 39.836832 -0.000000 -0.000000 0.000007 0.069934 8.896595 1.268489 -0.000004 -0.000008 3.057499 -5.000256 7.998902 -0.000121 -3.430384 -175.944252 2.002009 -179.999991 0.000005 -1.039003 165.286808 -1.302850 -0.706087 0.000001 0.000002 0.303522 71.783745 6.643115 2.589788 25.456964 -7.355616 0.000001 -1.809064 170.513651 -1.917316 -0.000005 -0.000004 -0.917871 -13.209104 -0.540818 0.659028 -0.000005 -0.000003 -0.093780 71.093786 -5.830848 -4.881861 25.465727 7.345353 -0.008253 
50.364399 -2.698790 95.990395 -4.090763 1.023506 0.905136 -0.743655 -0.558117 -0.015947 2.515419 -1.116733 -0.032920 4.160621 -1.117069 -0.019537 11.098607 1.710323 -4.025965 0.569972 -0.097449 -4.154050 -19.197900 -58.808680 -22.694038 -46.636730 -119.762859 -27.023859 0.000000 -0.000000 -0.000004 0.242768 -8.681244 -0.577643 -0.000001 0.000005 -3.000000 -5.000221 -7.998912 0.000138 -12.470513 60.421458 14.790208 -49.999792 118.951433 39.880399 -0.000002 -0.000000 0.000007 0.069934 8.894555 1.268190 -0.000003 -0.000008 3.057499 -5.000252 7.998904 -0.000121 -3.454986 -175.952353 2.002061 -179.999991 0.000005 -1.039003 165.262123 -1.314302 -0.707691 0.000001 0.000002 0.303529 71.797692 6.642136 2.593401 25.456960 -7.355616 0.000001 -1.845964 170.507845 -1.907284 -0.000005 -0.000004 -0.917852 -13.221928 -0.551643 0.658184 -0.000005 -0.000004 -0.093486 71.082298 -5.833846 -4.873663 25.465729 7.345352 -0.008253 
50.341705 -2.686197 95.985001 -4.080026 1.012657 0.945485 -0.742310 -0.557202 -0.016761 2.518097 -1.115272 -0.034123 4.163291 -1.115629 -0.020757 11.105597 1.724913 -4.031234 0.560198 -0.112016 -4.158534 -19.193127 -58.798209 -22.688427 -46.603596 -119.773077 -27.001184 0.000001 -0.000000 -0.000004 0.259726 -8.686612 -0.576927 0.000001 0.000004 -3.000002 -5.000224 -7.998912 0.000139 -12.460581 60.429498 14.778916 -50.043953 118.956296 39.925300 -0.000003 0.000002 0.000008 0.069933 8.892596 1.267924 -0.000004 -0.000008 3.057499 -5.000254 7.998903 -0.000121 -3.479476 -175.958432 2.002485 -179.999991 0.000005 -1.039003 165.237057 -1.325762 -0.710328 0.000001 0.000002 0.303540 71.811776 6.641216 2.596915 25.456962 -7.355615 0.000001 -1.882767 170.502040 -1.896800 -0.000005 -0.000005 -0.917823 -13.235851 -0.562581 0.657334 -0.000004 -0.000003 -0.093334 71.072059 -5.837118 -4.864745 25.465729 7.345353 -0.008252 
50.311298 -2.678579 95.984375 -4.069360 1.001608 0.985814 -0.741002 -0.556230 -0.017589 2.520707 -1.113712 -0.035338 4.165909 -1.114099 -0.021991 11.112586 1.739327 -4.036472 0.550571 -0.126445 -4.162985 -19.188378 -58.787746 -22.682846 -46.568933 -119.783855 -26.976623 0.000002 -0.000001 -0.000004 0.276877 -8.691871 -0.576201 -0.000000 0.000004 -3.000003 -5.000225 -7.998911 0.000140 -12.450471 60.437448 14.767407 -50.087946 118.961104 39.970086 -0.000003 0.000001 0.000007 0.069932 8.890707 1.267665 -0.000003 -0.000008 3.057499 -5.000255 7.998904 -0.000122 -3.503904 -175.964524 2.003259 -179.999991 0.000005 -1.038006 165.211880 -1.337205 -0.711976 0.000001 0.000002 0.303554 71.825887 6.640352 2.600336 25.456965 -7.355617 0.000001 -1.919508 170.497231 -1.886033 -0.000005 -0.000005 -0.917785 -13.250479 -0.573605 0.656480 -0.000004 -0.000003 -0.093281 71.062504 -5.840606 -4.855330 25.465730 7.345353 -0.008252 
50.265900 -2.666607 95.978882 -4.058734 0.990458 1.026132 -0.739705 -0.555226 -0.018426 2.523286 -1.112091 -0.036561 4.168487 -1.112500 -0.023232 11.119674 1.753621 -4.041693 0.541038 -0.140793 -4.167439 -19.183650 -58.777254 -22.677283 -46.535397 -119.793896 -26.953298 -0.000002 -0.000001 -0.000004 0.294139 -8.697069 -0.575462 -0.000001 0.000005 -3.000000 -5.000224 -7.998912 0.000139 -12.440308 60.445494 14.755838 -50.130409 118.966486 40.013144 -0.000002 -0.000000 0.000007 0.069933 8.888845 1.267408 -0.000005 -0.000008 3.057499 -5.000254 7.998903 -0.000121 -3.528288 -175.970631 2.004232 -179.999991 0.000005 -1.038006 165.186499 -1.348658 -0.714640 0.000000 0.000002 0.303569 71.840094 6.639511 2.603656 25.456960 -7.355617 0.000001 -1.956204 170.493447 -1.875130 -0.000006 -0.000004 -0.917743 -13.265506 -0.584673 0.655620 -0.000004 -0.000003 -0.093286 71.053509 -5.844213 -4.845506 25.465729 7.345353 -0.008253 
50.220798 -2.657776 95.974792 -4.048121 0.979289 1.066452 -0.738418 -0.554213 -0.019265 2.525845 -1.110451 -0.037786 4.171055 -1.110901 -0.024475 11.126864 1.767894 -4.046918 0.531519 -0.155120 -4.171880 -19.178946 -58.766777 -22.671763 -46.500631 -119.804633 -26.928458 -0.000001 0.000000 -0.000001 0.311427 -8.702254 -0.574715 0.000002 0.000005 -3.000002 -5.000224 -7.998912 0.000139 -12.430083 60.453437 14.744205 -50.174081 118.971186 40.057635 -0.000003 -0.000000 0.000006 0.069933 8.886996 1.267158 -0.000002 -0.000008 3.057499 -5.000254 7.998904 -0.000121 -3.552661 -175.976723 2.005271 -179.999991 0.000005 -1.038006 165.161132 -1.360094 -0.716300 0.000000 0.000002 0.303584 71.854314 6.638664 2.606976 25.456959 -7.355616 0.000000 -1.992907 170.488652 -1.864136 -0.000005 -0.000004 -0.917699 -13.280636 -0.595752 0.654755 -0.000005 -0.000003 -0.093304 71.044629 -5.847823 -4.835775 25.465729 7.345352 -0.008253 
50.176296 -2.656878 95.973793 -4.037486 0.968197 1.106787 -0.737120 -0.553216 -0.020100 2.528434 -1.108850 -0.039007 4.173633 -1.109321 -0.025715 11.133955 1.782226 -4.052154 0.521957 -0.169484 -4.176344 -19.174230 -58.756306 -22.666210 -46.467293 -119.814755 -26.905329 -0.000002 -0.000001 -0.000003 0.328658 -8.707480 -0.573970 0.000001 0.000004 -3.000002 -5.000221 -7.998911 0.000139 -12.419897 60.461395 14.732607 -50.216490 118.976609 40.100683 -0.000004 0.000001 0.000007 0.069934 8.885125 1.266912 -0.000003 -0.000008 3.057499 -5.000253 7.998903 -0.000121 -3.577053 -175.982829 2.006202 -179.999991 0.000005 -1.036995 165.135847 -1.370565 -0.717725 0.000001 0.000002 0.303598 71.868521 6.637782 2.610489 25.456959 -7.355617 0.000001 -2.029622 170.484855 -1.853260 -0.000005 -0.000004 -0.917659 -13.295563 -0.606807 0.653883 -0.000005 -0.000003 -0.093294 71.035518 -5.851395 -4.826151 25.465727 7.345353 -0.008253 
50.154396 -2.646259 95.971893 -4.026793 0.957271 1.147136 -0.735802 -0.552260 -0.020925 2.531062 -1.107319 -0.040220 4.176272 -1.107811 -0.026945 11.140950 1.796675 -4.057414 0.512291 -0.183946 -4.180825 -19.169477 -58.745836 -22.660621 -46.434129 -119.824973 -26.882445 -0.000002 -0.000001 -0.000005 0.345760 -8.712765 -0.573231 -0.000001 0.000005 -2.999999 -5.000226 -7.998911 0.000137 -12.409844 60.469434 14.721173 -50.260439 118.981486 40.145410 -0.000002 0.000000 0.000007 0.069932 8.883216 1.266644 -0.000001 -0.000008 3.057499 -5.000254 7.998904 -0.000121 -3.601501 -175.988922 2.006905 -179.999991 0.000005 -1.036995 165.110671 -1.382009 -0.720415 0.000001 0.000002 0.303612 71.882632 6.636924 2.613813 25.456960 -7.355617 0.000000 -2.066386 170.479076 -1.842529 -0.000005 -0.000004 -0.917623 -13.309991 -0.617804 0.653007 -0.000005 -0.000003 -0.093213 71.025751 -5.854842 -4.816843 25.465727 7.345353 -0.008252 
50.127396 -2.622429 95.970497 -4.016021 0.946602 1.187516 -0.734446 -0.551372 -0.021731 2.533762 -1.105898 -0.041418 4.178972 -1.106421 -0.028160 11.147844 1.811339 -4.062717 0.502447 -0.198564 -4.185358 -19.164705 -58.735365 -22.655005 -46.400026 -119.836010 -26.858694 -0.000001 0.000000 -0.000003 0.362641 -8.718170 -0.572509 -0.000001 0.000006 -3.000000 -5.000222 -7.998911 0.000141 -12.399961 60.477446 14.709939 -50.303261 118.987155 40.188768 -0.000002 0.000001 0.000008 0.069934 8.881234 1.266366 -0.000006 -0.000008 3.057499 -5.000255 7.998904 -0.000121 -3.626017 -175.996012 2.007283 -179.999991 0.000005 -1.036995 165.085686 -1.393439 -0.722095 0.000001 0.000002 0.303622 71.896709 6.635971 2.617424 25.456960 -7.355615 0.000001 -2.103222 170.474295 -1.832175 -0.000005 -0.000005 -0.917598 -13.323522 -0.628707 0.652127 -0.000005 -0.000003 -0.093019 71.015075 -5.858070 -4.808145 25.465729 7.345353 -0.008254 
50.081799 -2.617624 95.966896 -4.005140 0.936283 1.227943 -0.733037 -0.550572 -0.022514 2.536572 -1.104647 -0.042597 4.181779 -1.105191 -0.029354 11.154539 1.826291 -4.068083 0.492374 -0.213395 -4.189937 -19.159937 -58.724997 -22.649392 -46.367654 -119.846570 -26.837113 -0.000002 0.000001 -0.000002 0.379228 -8.723745 -0.571800 0.000002 0.000005 -3.000000 -5.000224 -7.998911 0.000137 -12.390276 60.485444 14.698936 -50.347715 118.992359 40.233940 -0.000003 0.000001 0.000007 0.069933 8.879155 1.266069 -0.000002 -0.000008 3.057499 -5.000254 7.998904 -0.000121 -3.650651 -176.004098 2.007180 -179.999991 0.000005 -1.035998 165.061111 -1.404882 -0.724790 0.000001 0.000002 0.303628 71.910663 6.634984 2.621036 25.456962 -7.355617 0.000001 -2.140164 170.467533 -1.822225 -0.000005 -0.000004 -0.917584 -13.335949 -0.639479 0.651241 -0.000005 -0.000003 -0.092668 71.003156 -5.860984 -4.800260 25.465729 7.345353 -0.008253 
50.042698 -2.610151 95.964104 -3.994101 0.926402 1.268432 -0.731568 -0.549888 -0.023267 2.539501 -1.103585 -0.043751 4.184709 -1.104159 -0.030519 11.160939 1.841605 -4.073514 0.481992 -0.228499 -4.194578 -19.155100 -58.714635 -22.643701 -46.335901 -119.857416 -26.816463 -0.000001 -0.000001 -0.000003 0.395434 -8.729517 -0.571123 0.000001 0.000005 -3.000000 -5.000220 -7.998911 0.000139 -12.380923 60.493517 14.688318 -50.392586 118.997782 40.279436 -0.000003 0.000002 0.000008 0.069933 8.876966 1.265742 -0.000004 -0.000008 3.057499 -5.000254 7.998905 -0.000121 -3.675426 -176.012199 2.006416 -179.999991 0.000005 -1.035998 165.036836 -1.415348 -0.727227 0.000000 0.000002 0.303629 71.924371 6.633902 2.624849 25.456962 -7.355614 -0.000000 -2.177229 170.460758 -1.812884 -0.000005 -0.000004 -0.917587 -13.346978 -0.650090 0.650353 -0.000004 -0.000003 -0.092118 70.989646 -5.863515 -4.793297 25.465727 7.345353 -0.008253 
